<svg xmlns="http://www.w3.org/2000/svg" viewBox="0 0 200 200">
  <!-- Background -->
  <rect width="200" height="200" fill="#B24FBB"/>
  
  <!-- Head -->
  <circle cx="100" cy="70" r="25" fill="#F5D5A8"/>
  
  <!-- Hair -->
  <path d="M 75 50 Q 75 35 100 35 Q 125 35 125 50" fill="#E8D5B7"/>
  <circle cx="85" cy="45" r="8" fill="#E8D5B7"/>
  <circle cx="115" cy="45" r="8" fill="#E8D5B7"/>
  
  <!-- Eyes -->
  <circle cx="92" cy="65" r="3" fill="#333"/>
  <circle cx="108" cy="65" r="3" fill="#333"/>
  
  <!-- Smile -->
  <path d="M 95 75 Q 100 78 105 75" stroke="#333" stroke-width="2" fill="none"/>
  
  <!-- Body/Clothes -->
  <ellipse cx="100" cy="110" rx="20" ry="25" fill="#FFCBA4"/>
  <path d="M 80 105 L 70 120 L 70 140 L 130 140 L 130 120 L 120 105" fill="#E8B4A8"/>
  
  <!-- Arms -->
  <rect x="60" y="105" width="15" height="8" fill="#F5D5A8" rx="4"/>
  <rect x="125" y="105" width="15" height="8" fill="#F5D5A8" rx="4"/>
  
  <!-- Hands holding plate -->
  <circle cx="65" cy="125" r="6" fill="#F5D5A8"/>
  <circle cx="135" cy="125" r="6" fill="#F5D5A8"/>
  
  <!-- Plate with sweets -->
  <ellipse cx="100" cy="130" rx="25" ry="15" fill="#D4A574"/>
  <rect x="90" y="122" width="8" height="8" fill="#8B4513" rx="2"/>
  <rect x="102" y="122" width="8" height="8" fill="#A0522D" rx="2"/>
</svg>